{"title":"American Horror Story S06E02 1080p WEB-DL HEVC DD5.1 x265","uid":15883432,"size":710859632,"categoryP":"video","categoryS":"hd___tv_shows","magnet":"?xt=urn:btih:2c1dff0e19aa62b6caae545f47eecd6ad309edd3&amp;dn=American+Horror+Story+S06E02+1080p+WEB-DL+HEVC+DD5.1+x265&amp;tr=udp%3A%2F%2Ftracker.leechers-paradise.org%3A6969&amp;tr=udp%3A%2F%2Fzer0day.ch%3A1337&amp;tr=udp%3A%2F%2Fopen.demonii.com%3A1337&amp;tr=udp%3A%2F%2Ftracker.coppersurfer.tk%3A6969&amp;tr=udp%3A%2F%2Fexodus.desync.com%3A6969","seeders":16,"leechers":3,"uploader":"nayhtut","files":1,"time":1474631566,"description":"[Screenshots Gallery Link]\r\n\r\n[http://postimg.org/gallery/2r92gwqiu]\r\n\r\n\r\nSource:  American Horror Story S06E02 1080p WEB-DL DD5.1 H.264 (3.71 GB)\r\n\r\n\r\nComplete name: American.Horror.Story.S06E02.1080p.WEB-DL.HEVC.DD5.1.x265.mkv\r\nFormat                                   : Matroska\r\nFormat version                           : Version 4 / Version 2\r\nFile size                                : 678 MiB\r\nDuration                                 : 41mn 39s\r\nOverall bit rate                         : 2 275 Kbps\r\nEncoded date                             : UTC 2016-09-23 08:06:55\r\nWriting library                          : libebml v1.3.4 + libmatroska v1.4.5\r\nDURATION                                 : 00:41:35.691000000\r\n\r\nVideo\r\n\r\nID                                       : 1\r\nFormat                                   : V_MPEGH/ISO/HEVC\r\nCodec ID                                 : V_MPEGH/ISO/HEVC\r\nDuration                                 : 41mn 39s\r\nBit rate                                 : 1 846 Kbps\r\nWidth                                    : 1 916 pixels\r\nHeight                                   : 1 076 pixels\r\nDisplay aspect ratio                     : 16:9\r\nFrame rate                               : 23.976 fps\r\nBits/(Pixel*Frame)                       : 0.037\r\nStream size                              : 550 MiB (81%)\r\nTitle : American.Horror.Story.S06E02.1080p.WEB-DL.HEVC.DD5.1.x265\r\nLanguage                                 : English\r\nDefault                                  : Yes\r\nForced                                   : No\r\nDURATION                                 : 00:41:39.247000000\r\n\r\nAudio\r\n\r\nID                                       : 2\r\nFormat                                   : AC-3\r\nFormat/Info                              : Audio Coding 3\r\nMode extension                           : CM (complete main)\r\nFormat settings, Endianness              : Big\r\nCodec ID                                 : A_AC3\r\nDuration                                 : 41mn 39s\r\nBit rate mode                            : Constant\r\nBit rate                                 : 384 Kbps\r\nChannel(s)                               : 6 channels\r\nChannel positions                        : Front: L C R, Side: L R, LFE\r\nSampling rate                            : 48.0 KHz\r\nBit depth                                : 16 bits\r\nCompression mode                         : Lossy\r\nStream size                              : 114 MiB (17%)\r\nTitle                                    : AC-3 5.1\r\nLanguage                                 : English\r\nDefault                                  : Yes\r\nForced                                   : No\r\n\r\nText\r\nID                                       : 3\r\nFormat                                   : UTF-8\r\nCodec ID                                 : S_TEXT/UTF8\r\nTitle                                    : English\r\nLanguage                                 : English","torrent":{"xt":"urn:btih:2c1dff0e19aa62b6caae545f47eecd6ad309edd3","amp;dn":"American+Horror+Story+S06E02+1080p+WEB-DL+HEVC+DD5.1+x265","amp;tr":["udp%3A%2F%2Ftracker.leechers-paradise.org%3A6969","udp%3A%2F%2Fzer0day.ch%3A1337","udp%3A%2F%2Fopen.demonii.com%3A1337","udp%3A%2F%2Ftracker.coppersurfer.tk%3A6969","udp%3A%2F%2Fexodus.desync.com%3A6969"],"infoHash":"2c1dff0e19aa62b6caae545f47eecd6ad309edd3","infoHashBuffer":{"type":"Buffer","data":[44,29,255,14,25,170,98,182,202,174,84,95,71,238,205,106,211,9,237,211]},"announce":[],"urlList":[]}}